<svg width="512" height="512" viewBox="0 0 512 512" fill="none" xmlns="http://www.w3.org/2000/svg">
  <rect width="512" height="512" rx="64" fill="#3b82f6"/>
  <circle cx="256" cy="256" r="128" fill="white"/>
  <path d="M256 160c-52.94 0-96 43.06-96 96s43.06 96 96 96 96-43.06 96-96-43.06-96-96-96zm0 160c-35.35 0-64-28.65-64-64s28.65-64 64-64 64 28.65 64 64-28.65 64-64 64z" fill="#3b82f6"/>
  <circle cx="256" cy="256" r="32" fill="#3b82f6"/>
  <path d="M256 224c-17.67 0-32 14.33-32 32s14.33 32 32 32 32-14.33 32-32-14.33-32-32-32z" fill="white"/>
</svg> 