<svg width="192" height="192" viewBox="0 0 192 192" fill="none" xmlns="http://www.w3.org/2000/svg">
  <rect width="192" height="192" rx="24" fill="#3b82f6"/>
  <circle cx="96" cy="96" r="48" fill="white"/>
  <path d="M96 60c-19.882 0-36 16.118-36 36s16.118 36 36 36 36-16.118 36-36-16.118-36-36-36zm0 60c-13.255 0-24-10.745-24-24s10.745-24 24-24 24 10.745 24 24-10.745 24-24 24z" fill="#3b82f6"/>
  <circle cx="96" cy="96" r="12" fill="#3b82f6"/>
  <path d="M96 84c-6.627 0-12 5.373-12 12s5.373 12 12 12 12-5.373 12-12-5.373-12-12-12z" fill="white"/>
</svg> 